<svg xmlns="http://www.w3.org/2000/svg" width="40" height="40" fill="none"><g clip-path="url(#a)"><path fill="#37AEE2" d="M34 0H6a6 6 0 0 0-6 6v28a6 6 0 0 0 6 6h28a6 6 0 0 0 6-6V6a6 6 0 0 0-6-6Z"/><path fill="#C8DAEA" d="M15.547 31.563c-.86 0-.781-.313-1.016-1.094l-2.5-8.203 19.14-11.25"/><path fill="#A9C9DD" d="M15.547 31.563c.547 0 .86-.313 1.25-.625l3.515-3.36-4.375-2.656"/><path fill="#F6FBFE" d="m15.938 24.922 10.546 7.734c1.094.703 2.032.313 2.344-1.093l4.297-20.157c.39-1.718-.703-2.5-1.875-1.953L6.172 19.141c-1.64.625-1.64 1.64-.313 2.031l6.485 2.031 14.844-9.453c.703-.39 1.328-.234.859.313"/></g><defs><clipPath id="a"><path fill="#fff" d="M0 0h40v40H0z"/></clipPath></defs></svg>